<svg xmlns="http://www.w3.org/2000/svg" xmlns:xlink="http://www.w3.org/1999/xlink" width="500" zoomAndPan="magnify" viewBox="0 0 375 374.999991" height="500" preserveAspectRatio="xMidYMid meet" version="1.0"><defs><g/><clipPath id="eaa29c0db1"><path d="M 124.5 122.492188 L 274.5 122.492188 L 274.5 272.492188 L 124.5 272.492188 Z M 124.5 122.492188 " clip-rule="nonzero"/></clipPath><clipPath id="8dd9573981"><path d="M 5.191406 5.191406 L 369.808594 5.191406 L 369.808594 369.808594 L 5.191406 369.808594 Z M 5.191406 5.191406 " clip-rule="nonzero"/></clipPath><clipPath id="1058ad36c4"><path d="M 187.5 5.191406 C 86.8125 5.191406 5.191406 86.8125 5.191406 187.5 C 5.191406 288.1875 86.8125 369.808594 187.5 369.808594 C 288.1875 369.808594 369.808594 288.1875 369.808594 187.5 C 369.808594 86.8125 288.1875 5.191406 187.5 5.191406 Z M 187.5 5.191406 " clip-rule="nonzero"/></clipPath><clipPath id="c9d7e2f9e8"><path d="M 156 218 L 247 218 L 247 272.425781 L 156 272.425781 Z M 156 218 " clip-rule="nonzero"/></clipPath><clipPath id="8460bc9538"><path d="M 101.988281 149 L 272.988281 149 L 272.988281 171 L 101.988281 171 Z M 101.988281 149 " clip-rule="nonzero"/></clipPath><clipPath id="84a1ff8dbd"><path d="M 40.261719 86 L 110 86 L 110 191.917969 L 40.261719 191.917969 Z M 40.261719 86 " clip-rule="nonzero"/></clipPath><clipPath id="f1872f44e7"><path d="M 89.921875 63.925781 L 129.972656 63.925781 L 129.972656 124.625 L 89.921875 124.625 Z M 89.921875 63.925781 " clip-rule="nonzero"/></clipPath></defs><g clip-path="url(#eaa29c0db1)"><path fill="#ffffff" d="M 274.5 197.492188 C 274.5 198.71875 274.46875 199.945312 274.410156 201.171875 C 274.347656 202.398438 274.257812 203.621094 274.140625 204.84375 C 274.019531 206.0625 273.867188 207.28125 273.6875 208.496094 C 273.507812 209.710938 273.296875 210.917969 273.058594 212.121094 C 272.820312 213.328125 272.550781 214.523438 272.253906 215.714844 C 271.953125 216.90625 271.625 218.085938 271.269531 219.261719 C 270.914062 220.4375 270.527344 221.601562 270.117188 222.757812 C 269.703125 223.914062 269.261719 225.058594 268.789062 226.191406 C 268.320312 227.328125 267.824219 228.449219 267.300781 229.558594 C 266.773438 230.667969 266.222656 231.761719 265.644531 232.847656 C 265.066406 233.929688 264.460938 234.996094 263.828125 236.046875 C 263.199219 237.101562 262.542969 238.136719 261.859375 239.160156 C 261.179688 240.179688 260.472656 241.183594 259.742188 242.167969 C 259.007812 243.15625 258.253906 244.121094 257.476562 245.070312 C 256.695312 246.019531 255.894531 246.949219 255.070312 247.859375 C 254.246094 248.765625 253.402344 249.65625 252.53125 250.523438 C 251.664062 251.390625 250.777344 252.238281 249.867188 253.0625 C 248.957031 253.886719 248.027344 254.6875 247.078125 255.46875 C 246.128906 256.246094 245.164062 257 244.175781 257.730469 C 243.191406 258.460938 242.1875 259.167969 241.167969 259.851562 C 240.148438 260.53125 239.109375 261.191406 238.058594 261.820312 C 237.003906 262.453125 235.9375 263.054688 234.855469 263.636719 C 233.773438 264.214844 232.675781 264.765625 231.566406 265.289062 C 230.457031 265.816406 229.335938 266.3125 228.203125 266.78125 C 227.066406 267.25 225.921875 267.691406 224.765625 268.105469 C 223.609375 268.519531 222.445312 268.90625 221.269531 269.261719 C 220.097656 269.617188 218.914062 269.945312 217.722656 270.242188 C 216.53125 270.542969 215.335938 270.808594 214.132812 271.050781 C 212.929688 271.289062 211.71875 271.5 210.503906 271.679688 C 209.289062 271.859375 208.074219 272.007812 206.851562 272.128906 C 205.628906 272.25 204.40625 272.339844 203.179688 272.402344 C 201.953125 272.460938 200.726562 272.492188 199.5 272.492188 C 198.273438 272.492188 197.046875 272.460938 195.820312 272.402344 C 194.59375 272.339844 193.371094 272.25 192.148438 272.128906 C 190.925781 272.007812 189.710938 271.859375 188.496094 271.679688 C 187.28125 271.5 186.070312 271.289062 184.867188 271.050781 C 183.664062 270.808594 182.46875 270.542969 181.277344 270.242188 C 180.085938 269.945312 178.902344 269.617188 177.730469 269.261719 C 176.554688 268.90625 175.390625 268.519531 174.234375 268.105469 C 173.078125 267.691406 171.933594 267.25 170.796875 266.78125 C 169.664062 266.3125 168.542969 265.816406 167.433594 265.289062 C 166.324219 264.765625 165.226562 264.214844 164.144531 263.636719 C 163.0625 263.054688 161.996094 262.453125 160.941406 261.820312 C 159.890625 261.191406 158.851562 260.53125 157.832031 259.851562 C 156.8125 259.167969 155.808594 258.460938 154.824219 257.730469 C 153.835938 257 152.871094 256.246094 151.921875 255.46875 C 150.972656 254.6875 150.042969 253.886719 149.132812 253.0625 C 148.222656 252.238281 147.335938 251.390625 146.46875 250.523438 C 145.597656 249.65625 144.753906 248.765625 143.929688 247.859375 C 143.105469 246.949219 142.304688 246.019531 141.523438 245.070312 C 140.746094 244.121094 139.992188 243.15625 139.257812 242.167969 C 138.527344 241.183594 137.820312 240.179688 137.140625 239.160156 C 136.457031 238.136719 135.800781 237.101562 135.171875 236.046875 C 134.539062 234.996094 133.933594 233.929688 133.355469 232.847656 C 132.777344 231.761719 132.226562 230.667969 131.699219 229.558594 C 131.175781 228.449219 130.679688 227.328125 130.210938 226.191406 C 129.738281 225.058594 129.296875 223.914062 128.882812 222.757812 C 128.46875 221.601562 128.085938 220.4375 127.730469 219.261719 C 127.375 218.085938 127.046875 216.90625 126.746094 215.714844 C 126.449219 214.523438 126.179688 213.328125 125.941406 212.121094 C 125.703125 210.917969 125.492188 209.710938 125.3125 208.496094 C 125.132812 207.28125 124.980469 206.0625 124.859375 204.84375 C 124.742188 203.621094 124.652344 202.398438 124.589844 201.171875 C 124.53125 199.945312 124.5 198.71875 124.5 197.492188 C 124.5 196.261719 124.53125 195.035156 124.589844 193.8125 C 124.652344 192.585938 124.742188 191.359375 124.859375 190.140625 C 124.980469 188.917969 125.132812 187.699219 125.3125 186.484375 C 125.492188 185.273438 125.703125 184.0625 125.941406 182.859375 C 126.179688 181.65625 126.449219 180.457031 126.746094 179.265625 C 127.046875 178.078125 127.375 176.894531 127.730469 175.71875 C 128.085938 174.546875 128.46875 173.378906 128.882812 172.222656 C 129.296875 171.070312 129.738281 169.921875 130.210938 168.789062 C 130.679688 167.65625 131.175781 166.535156 131.699219 165.425781 C 132.226562 164.316406 132.777344 163.21875 133.355469 162.136719 C 133.933594 161.054688 134.539062 159.984375 135.171875 158.933594 C 135.800781 157.878906 136.457031 156.84375 137.140625 155.824219 C 137.820312 154.800781 138.527344 153.800781 139.257812 152.8125 C 139.992188 151.828125 140.746094 150.859375 141.523438 149.910156 C 142.304688 148.960938 143.105469 148.035156 143.929688 147.125 C 144.753906 146.214844 145.597656 145.324219 146.46875 144.457031 C 147.335938 143.589844 148.222656 142.742188 149.132812 141.917969 C 150.042969 141.09375 150.972656 140.292969 151.921875 139.515625 C 152.871094 138.738281 153.835938 137.980469 154.824219 137.25 C 155.808594 136.519531 156.8125 135.8125 157.832031 135.128906 C 158.851562 134.449219 159.890625 133.792969 160.941406 133.160156 C 161.996094 132.53125 163.0625 131.925781 164.144531 131.347656 C 165.226562 130.769531 166.324219 130.214844 167.433594 129.691406 C 168.542969 129.167969 169.664062 128.667969 170.796875 128.199219 C 171.933594 127.730469 173.078125 127.289062 174.234375 126.875 C 175.390625 126.460938 176.554688 126.078125 177.730469 125.71875 C 178.902344 125.363281 180.085938 125.035156 181.277344 124.738281 C 182.46875 124.441406 183.664062 124.171875 184.867188 123.933594 C 186.070312 123.691406 187.28125 123.484375 188.496094 123.304688 C 189.710938 123.121094 190.925781 122.972656 192.148438 122.851562 C 193.371094 122.730469 194.59375 122.640625 195.820312 122.582031 C 197.046875 122.519531 198.273438 122.492188 199.5 122.492188 C 200.726562 122.492188 201.953125 122.519531 203.179688 122.582031 C 204.40625 122.640625 205.628906 122.730469 206.851562 122.851562 C 208.074219 122.972656 209.289062 123.121094 210.503906 123.304688 C 211.71875 123.484375 212.929688 123.691406 214.132812 123.933594 C 215.335938 124.171875 216.53125 124.441406 217.722656 124.738281 C 218.914062 125.035156 220.097656 125.363281 221.269531 125.71875 C 222.445312 126.078125 223.609375 126.460938 224.765625 126.875 C 225.921875 127.289062 227.066406 127.730469 228.203125 128.199219 C 229.335938 128.667969 230.457031 129.167969 231.566406 129.691406 C 232.675781 130.214844 233.773438 130.769531 234.855469 131.347656 C 235.9375 131.925781 237.003906 132.53125 238.058594 133.160156 C 239.109375 133.792969 240.148438 134.449219 241.167969 135.128906 C 242.1875 135.8125 243.191406 136.519531 244.175781 137.25 C 245.164062 137.980469 246.128906 138.738281 247.078125 139.515625 C 248.027344 140.292969 248.957031 141.09375 249.867188 141.917969 C 250.777344 142.742188 251.664062 143.589844 252.53125 144.457031 C 253.402344 145.324219 254.246094 146.214844 255.070312 147.125 C 255.894531 148.035156 256.695312 148.960938 257.476562 149.910156 C 258.253906 150.859375 259.007812 151.828125 259.742188 152.8125 C 260.472656 153.800781 261.179688 154.800781 261.859375 155.824219 C 262.542969 156.84375 263.199219 157.878906 263.828125 158.933594 C 264.460938 159.984375 265.066406 161.054688 265.644531 162.136719 C 266.222656 163.21875 266.773438 164.316406 267.300781 165.425781 C 267.824219 166.535156 268.320312 167.65625 268.789062 168.789062 C 269.261719 169.921875 269.703125 171.070312 270.117188 172.222656 C 270.527344 173.378906 270.914062 174.546875 271.269531 175.71875 C 271.625 176.894531 271.953125 178.078125 272.253906 179.265625 C 272.550781 180.457031 272.820312 181.65625 273.058594 182.859375 C 273.296875 184.0625 273.507812 185.273438 273.6875 186.484375 C 273.867188 187.699219 274.019531 188.917969 274.140625 190.140625 C 274.257812 191.359375 274.347656 192.585938 274.410156 193.8125 C 274.46875 195.035156 274.5 196.261719 274.5 197.492188 Z M 274.5 197.492188 " fill-opacity="1" fill-rule="nonzero"/></g><g clip-path="url(#8dd9573981)"><g clip-path="url(#1058ad36c4)"><path fill="#000000" d="M 5.191406 5.191406 L 369.808594 5.191406 L 369.808594 369.808594 L 5.191406 369.808594 Z M 5.191406 5.191406 " fill-opacity="1" fill-rule="nonzero"/></g></g><g clip-path="url(#c9d7e2f9e8)"><path fill="#ffffff" d="M 246.863281 249.390625 C 243.0625 252.011719 238.582031 253.578125 233.964844 253.863281 C 229.148438 254.15625 224.277344 253.058594 220.050781 250.722656 C 219.125 252.304688 218.144531 253.808594 217.109375 255.230469 C 209.382812 265.980469 198.953125 272.40625 187.496094 272.40625 C 175.859375 272.40625 164.976562 265.65625 156.925781 253.699219 C 157.917969 251.808594 158.535156 249.742188 158.777344 247.417969 C 158.804688 247.140625 158.832031 246.855469 158.84375 246.5625 C 166.078125 259.59375 176.492188 267.039062 187.496094 267.039062 C 205.867188 267.039062 221.78125 246.050781 224.773438 218.058594 L 229.214844 224.914062 L 238.972656 239.960938 C 240.957031 243.046875 243.210938 246.546875 246.539062 249.152344 C 246.648438 249.230469 246.753906 249.3125 246.863281 249.390625 " fill-opacity="1" fill-rule="nonzero"/></g><path fill="#ffffff" d="M 199.519531 175.882812 C 198.875 177.222656 198.175781 178.539062 197.410156 179.828125 C 197.25 180.136719 197.074219 180.445312 196.875 180.742188 C 196.632812 181.167969 196.367188 181.597656 196.082031 182.027344 C 195.882812 182.335938 195.679688 182.644531 195.476562 182.953125 C 195.398438 183.089844 195.320312 183.210938 195.210938 183.328125 C 194.820312 183.917969 194.40625 184.511719 193.976562 185.085938 C 193.347656 185.945312 192.6875 186.792969 192.003906 187.609375 C 191.761719 187.90625 191.519531 188.203125 191.265625 188.496094 C 190.675781 189.179688 190.070312 189.851562 189.441406 190.507812 C 189.039062 190.953125 188.621094 191.382812 188.191406 191.796875 C 188.097656 191.878906 188.015625 191.972656 187.925781 192.050781 C 187.46875 192.496094 187.011719 192.9375 186.542969 193.367188 C 185.535156 194.28125 184.515625 195.167969 183.441406 195.996094 C 183.09375 196.28125 182.730469 196.5625 182.367188 196.832031 C 182.21875 196.949219 182.074219 197.058594 181.925781 197.152344 C 181.46875 197.515625 181 197.835938 180.53125 198.15625 C 179.082031 199.179688 177.578125 200.105469 176.035156 200.964844 C 175.484375 201.273438 174.933594 201.582031 174.371094 201.863281 C 173.566406 202.277344 172.746094 202.667969 171.925781 203.042969 C 170.84375 203.527344 169.726562 203.996094 168.613281 204.464844 C 162.761719 206.933594 156.148438 209.738281 152.859375 215.910156 C 149.585938 222.085938 150.925781 228.875 152.242188 235.449219 C 153.046875 239.527344 153.8125 243.382812 153.4375 246.855469 C 153.25 248.683594 152.75 250.25 151.921875 251.648438 C 148.429688 257.511719 140.058594 258.15625 136.636719 258.167969 L 136.582031 258.167969 C 127.765625 258.167969 115.339844 254.960938 108.804688 247.917969 C 103.515625 242.226562 104.671875 232.363281 107.5 225.035156 L 122.453125 186.230469 C 123.710938 182.925781 125.082031 179.410156 126.542969 175.882812 L 199.519531 175.882812 " fill-opacity="1" fill-rule="nonzero"/><path fill="#ffffff" d="M 263.394531 234.898438 C 263.394531 237.300781 263.179688 239.394531 262.535156 241.339844 C 261.621094 244.09375 259.824219 246.160156 257.675781 246.882812 C 254.941406 247.824219 251.828125 246.492188 249.855469 244.9375 C 247.238281 242.886719 245.238281 239.785156 243.480469 237.046875 L 229.792969 215.925781 L 221.859375 203.671875 C 221.109375 202.519531 220.371094 201.363281 219.632812 200.210938 C 217.957031 197.539062 216.347656 194.882812 214.894531 192.226562 C 214.546875 191.597656 214.210938 190.953125 213.890625 190.320312 C 213.609375 189.769531 213.339844 189.234375 213.070312 188.683594 C 212.976562 188.496094 212.882812 188.292969 212.789062 188.105469 C 212.535156 187.570312 212.28125 187.035156 212.050781 186.496094 C 212.023438 186.429688 211.996094 186.375 211.972656 186.308594 C 211.742188 185.8125 211.542969 185.328125 211.355469 184.832031 C 210.910156 183.761719 210.507812 182.683594 210.160156 181.613281 C 210.050781 181.316406 209.957031 181.023438 209.878906 180.742188 C 209.730469 180.257812 209.582031 179.785156 209.449219 179.304688 C 209.316406 178.820312 209.195312 178.324219 209.085938 177.828125 C 209.074219 177.773438 209.058594 177.707031 209.046875 177.640625 C 208.910156 177.0625 208.789062 176.484375 208.683594 175.894531 L 208.683594 175.882812 L 246.699219 175.882812 C 256.738281 193.164062 262.496094 212.636719 263.328125 232.296875 C 263.367188 233.210938 263.394531 234.066406 263.394531 234.898438 " fill-opacity="1" fill-rule="nonzero"/><path fill="#ffffff" d="M 200.242188 238.632812 C 200.242188 240.105469 199.035156 241.3125 197.558594 241.3125 L 177.429688 241.3125 C 175.953125 241.3125 174.746094 240.105469 174.746094 238.632812 C 174.746094 237.15625 175.953125 235.945312 177.429688 235.945312 L 197.558594 235.945312 C 199.035156 235.945312 200.242188 237.15625 200.242188 238.632812 " fill-opacity="1" fill-rule="nonzero"/><g clip-path="url(#8460bc9538)"><path fill="#ffffff" d="M 273.003906 170.515625 L 101.988281 170.515625 L 137.617188 149.070312 L 237.375 149.070312 L 273.003906 170.515625 " fill-opacity="1" fill-rule="nonzero"/></g><path fill="#ffffff" d="M 187.84375 84.308594 C 187.84375 85.785156 189.039062 86.992188 190.527344 86.992188 L 200.925781 86.992188 L 226.519531 131.570312 L 144.726562 131.570312 L 154.121094 103.914062 C 163.96875 82.941406 183.402344 68.058594 206.199219 64.003906 C 211.648438 65.347656 216.722656 67.710938 221.257812 70.996094 C 225.242188 73.921875 228.652344 77.410156 231.390625 81.425781 L 230.15625 80.710938 C 221.242188 75.558594 210.144531 75.949219 201.636719 81.625 L 190.527344 81.625 C 189.039062 81.625 187.84375 82.832031 187.84375 84.308594 " fill-opacity="1" fill-rule="nonzero"/><path fill="#ffffff" d="M 233.46875 143.703125 L 140.621094 143.703125 L 142.917969 136.9375 L 229.5625 136.9375 L 233.46875 143.703125 " fill-opacity="1" fill-rule="nonzero"/><g clip-path="url(#84a1ff8dbd)"><path fill="#ffffff" d="M 75.121094 86.363281 L 79.25 126.410156 C 79.71875 130.96875 83.125 134.648438 87.566406 135.390625 L 109.980469 139.140625 L 87.566406 142.890625 C 83.125 143.632812 79.71875 147.3125 79.25 151.871094 L 75.121094 191.917969 L 70.996094 151.871094 C 70.527344 147.3125 67.121094 143.632812 62.675781 142.890625 L 40.261719 139.140625 L 62.675781 135.390625 C 67.121094 134.648438 70.527344 130.96875 70.996094 126.410156 L 75.121094 86.363281 " fill-opacity="1" fill-rule="nonzero"/></g><g clip-path="url(#f1872f44e7)"><path fill="#ffffff" d="M 109.980469 63.929688 L 112.347656 86.894531 C 112.617188 89.511719 114.570312 91.617188 117.117188 92.042969 L 129.972656 94.195312 L 117.117188 96.347656 C 114.570312 96.773438 112.617188 98.882812 112.347656 101.496094 L 109.980469 124.464844 L 107.613281 101.496094 C 107.347656 98.882812 105.394531 96.773438 102.84375 96.347656 L 89.988281 94.195312 L 102.84375 92.042969 C 105.394531 91.617188 107.347656 89.511719 107.613281 86.894531 L 109.980469 63.929688 " fill-opacity="1" fill-rule="nonzero"/></g><g fill="#ffffff" fill-opacity="1"><g transform="translate(119.910601, 326.347605)"><g><path d="M 24.828125 -18.6875 C 26.878906 -17.78125 28.457031 -16.46875 29.5625 -14.75 C 30.675781 -13.03125 31.253906 -11.054688 31.296875 -8.828125 C 31.335938 -6.597656 30.820312 -4.265625 29.75 -1.828125 C 28.582031 0.828125 27.097656 2.929688 25.296875 4.484375 C 23.492188 6.046875 21.554688 6.992188 19.484375 7.328125 C 17.410156 7.660156 15.394531 7.394531 13.4375 6.53125 C 12.15625 5.96875 11.09375 5.171875 10.25 4.140625 C 9.40625 3.117188 8.796875 1.96875 8.421875 0.6875 L 3.203125 12.546875 L -0.921875 10.734375 L 13.859375 -22.84375 L 17.609375 -21.203125 L 16.234375 -18.078125 C 17.679688 -18.929688 19.078125 -19.421875 20.421875 -19.546875 C 21.765625 -19.679688 23.234375 -19.394531 24.828125 -18.6875 Z M 12.15625 -8.953125 C 10.863281 -6.015625 10.460938 -3.5 10.953125 -1.40625 C 11.453125 0.6875 12.6875 2.164062 14.65625 3.03125 C 16.582031 3.882812 18.523438 3.773438 20.484375 2.703125 C 22.453125 1.640625 24.109375 -0.421875 25.453125 -3.484375 C 26.710938 -6.347656 27.113281 -8.867188 26.65625 -11.046875 C 26.195312 -13.234375 24.988281 -14.757812 23.03125 -15.625 C 21.75 -16.1875 20.429688 -16.285156 19.078125 -15.921875 C 17.734375 -15.566406 16.445312 -14.785156 15.21875 -13.578125 C 14 -12.367188 12.976562 -10.828125 12.15625 -8.953125 Z M 12.15625 -8.953125 "/></g></g></g><g fill="#ffffff" fill-opacity="1"><g transform="translate(152.814946, 339.9241)"><g><path d="M 19.203125 -24.03125 C 21.335938 -23.632812 23.03125 -23.101562 24.28125 -22.4375 C 25.53125 -21.78125 26.46875 -20.976562 27.09375 -20.03125 C 27.675781 -19.113281 28.019531 -18.160156 28.125 -17.171875 C 28.226562 -16.191406 28.140625 -14.9375 27.859375 -13.40625 L 25.921875 -2.875 C 25.296875 0.5 25.304688 3.050781 25.953125 4.78125 L 21.328125 3.921875 C 21.066406 2.941406 20.960938 1.8125 21.015625 0.53125 C 19.160156 1.570312 17.414062 2.253906 15.78125 2.578125 C 14.144531 2.898438 12.503906 2.910156 10.859375 2.609375 C 8.046875 2.085938 5.957031 0.992188 4.59375 -0.671875 C 3.226562 -2.335938 2.753906 -4.300781 3.171875 -6.5625 C 3.390625 -7.726562 3.867188 -8.804688 4.609375 -9.796875 C 5.347656 -10.785156 6.242188 -11.492188 7.296875 -11.921875 C 8.421875 -12.398438 9.53125 -12.691406 10.625 -12.796875 C 11.726562 -12.910156 13.046875 -12.921875 14.578125 -12.828125 C 16.234375 -12.691406 17.882812 -12.617188 19.53125 -12.609375 C 21.175781 -12.609375 22.390625 -12.6875 23.171875 -12.84375 L 23.375 -13.953125 C 23.707031 -15.734375 23.472656 -17.160156 22.671875 -18.234375 C 21.878906 -19.316406 20.328125 -20.070312 18.015625 -20.5 C 15.835938 -20.894531 14.203125 -20.796875 13.109375 -20.203125 C 12.015625 -19.617188 11.082031 -18.476562 10.3125 -16.78125 L 6.09375 -18.109375 C 7.207031 -20.816406 8.847656 -22.628906 11.015625 -23.546875 C 13.179688 -24.472656 15.910156 -24.632812 19.203125 -24.03125 Z M 15.90625 -9.046875 C 14.15625 -9.085938 12.796875 -9.066406 11.828125 -8.984375 C 10.859375 -8.898438 10.015625 -8.617188 9.296875 -8.140625 C 8.585938 -7.671875 8.128906 -6.878906 7.921875 -5.765625 C 7.679688 -4.460938 7.972656 -3.363281 8.796875 -2.46875 C 9.628906 -1.570312 10.914062 -0.960938 12.65625 -0.640625 C 13.65625 -0.453125 14.78125 -0.457031 16.03125 -0.65625 C 17.289062 -0.863281 18.453125 -1.40625 19.515625 -2.28125 C 20.203125 -2.84375 20.753906 -3.519531 21.171875 -4.3125 C 21.597656 -5.101562 21.9375 -6.15625 22.1875 -7.46875 L 22.53125 -9.375 C 21.09375 -9.082031 18.882812 -8.972656 15.90625 -9.046875 Z M 15.90625 -9.046875 "/></g></g></g><g fill="#ffffff" fill-opacity="1"><g transform="translate(187.963125, 345.547637)"><g><path d="M 13.796875 -27.84375 C 16.035156 -27.957031 18.035156 -27.492188 19.796875 -26.453125 C 21.566406 -25.421875 22.972656 -23.914062 24.015625 -21.9375 C 25.054688 -19.96875 25.644531 -17.648438 25.78125 -14.984375 C 25.925781 -12.085938 25.539062 -9.539062 24.625 -7.34375 C 23.707031 -5.144531 22.398438 -3.429688 20.703125 -2.203125 C 19.015625 -0.972656 17.097656 -0.300781 14.953125 -0.1875 C 13.554688 -0.125 12.242188 -0.359375 11.015625 -0.890625 C 9.796875 -1.429688 8.734375 -2.191406 7.828125 -3.171875 L 8.484375 9.765625 L 4 10 L 2.140625 -26.640625 L 6.21875 -26.859375 L 6.390625 -23.4375 C 7.304688 -24.84375 8.332031 -25.90625 9.46875 -26.625 C 10.613281 -27.351562 12.054688 -27.757812 13.796875 -27.84375 Z M 6.84375 -13.453125 C 7 -10.242188 7.769531 -7.816406 9.15625 -6.171875 C 10.539062 -4.523438 12.304688 -3.753906 14.453125 -3.859375 C 16.566406 -3.972656 18.257812 -4.945312 19.53125 -6.78125 C 20.800781 -8.613281 21.347656 -11.203125 21.171875 -14.546875 C 21.015625 -17.679688 20.242188 -20.113281 18.859375 -21.84375 C 17.484375 -23.582031 15.722656 -24.398438 13.578125 -24.296875 C 12.179688 -24.222656 10.957031 -23.722656 9.90625 -22.796875 C 8.851562 -21.867188 8.050781 -20.59375 7.5 -18.96875 C 6.957031 -17.34375 6.738281 -15.503906 6.84375 -13.453125 Z M 6.84375 -13.453125 "/></g></g></g><g fill="#ffffff" fill-opacity="1"><g transform="translate(223.460833, 342.915045)"><g><path d="M 6.21875 -30.046875 C 8.6875 -30.765625 10.960938 -30.796875 13.046875 -30.140625 C 15.140625 -29.492188 16.914062 -28.316406 18.375 -26.609375 C 19.832031 -24.898438 20.910156 -22.832031 21.609375 -20.40625 L 22.015625 -19.03125 L 3 -13.5 C 3.925781 -10.820312 5.3125 -8.925781 7.15625 -7.8125 C 9 -6.695312 11.023438 -6.460938 13.234375 -7.109375 C 14.898438 -7.585938 16.148438 -8.429688 16.984375 -9.640625 C 17.828125 -10.847656 18.296875 -12.382812 18.390625 -14.25 L 23.015625 -15.015625 C 23.078125 -12.253906 22.359375 -9.863281 20.859375 -7.84375 C 19.367188 -5.832031 17.234375 -4.421875 14.453125 -3.609375 C 10.554688 -2.472656 7.1875 -2.734375 4.34375 -4.390625 C 1.5 -6.054688 -0.519531 -8.957031 -1.71875 -13.09375 C -2.519531 -15.84375 -2.726562 -18.375 -2.34375 -20.6875 C -1.957031 -23.007812 -1.03125 -24.972656 0.4375 -26.578125 C 1.90625 -28.191406 3.832031 -29.347656 6.21875 -30.046875 Z M 2.1875 -17.171875 L 16.390625 -21.296875 C 15.585938 -23.679688 14.3125 -25.273438 12.5625 -26.078125 C 10.820312 -26.878906 9.050781 -27.019531 7.25 -26.5 C 5.21875 -25.90625 3.753906 -24.734375 2.859375 -22.984375 C 1.972656 -21.234375 1.75 -19.296875 2.1875 -17.171875 Z M 2.1875 -17.171875 "/></g></g></g><g fill="#ffffff" fill-opacity="1"><g transform="translate(256.775059, 331.98224)"><g><path d="M -0.71875 -30.109375 C 0.644531 -30.816406 2.207031 -31.097656 3.96875 -30.953125 L 4.515625 -26.546875 C 3.242188 -26.628906 2.078125 -26.394531 1.015625 -25.84375 C -0.492188 -25.070312 -1.25 -23.8125 -1.25 -22.0625 C -1.25 -20.3125 -0.6875 -18.34375 0.4375 -16.15625 L 6.921875 -3.5625 L 2.921875 -1.5 L -9.203125 -25.0625 L -5.625 -26.90625 L -3.8125 -23.359375 C -3.75 -25.117188 -3.519531 -26.523438 -3.125 -27.578125 C -2.738281 -28.640625 -1.9375 -29.484375 -0.71875 -30.109375 Z M -0.71875 -30.109375 "/></g></g></g><g fill="#ffffff" fill-opacity="1"><g transform="translate(277.059174, 320.939395)"><g/></g></g><g fill="#ffffff" fill-opacity="1"><g transform="translate(294.055809, 308.923903)"><g><path d="M -11.328125 -22.046875 C -11.460938 -23.617188 -11.296875 -25.082031 -10.828125 -26.4375 C -10.367188 -27.789062 -9.550781 -29.078125 -8.375 -30.296875 C -7.375 -31.328125 -6.3125 -32.101562 -5.1875 -32.625 C -4.0625 -33.15625 -2.953125 -33.4375 -1.859375 -33.46875 C -0.734375 -33.507812 0.382812 -33.25 1.5 -32.6875 C 2.625 -32.132812 3.859375 -31.203125 5.203125 -29.890625 L 17.46875 -17.984375 L 14.328125 -14.75 L 2.140625 -26.578125 C 0.703125 -27.984375 -0.734375 -28.71875 -2.171875 -28.78125 C -3.609375 -28.84375 -4.976562 -28.203125 -6.28125 -26.859375 C -7.226562 -25.878906 -7.859375 -24.679688 -8.171875 -23.265625 C -8.484375 -21.847656 -8.316406 -20.492188 -7.671875 -19.203125 C -7.171875 -18.242188 -6.347656 -17.207031 -5.203125 -16.09375 L 5.515625 -5.6875 L 2.390625 -2.453125 L -23.875 -27.96875 L -20.75 -31.203125 Z M -11.328125 -22.046875 "/></g></g></g><g fill="#ffffff" fill-opacity="1"><g transform="translate(318.249855, 282.81518)"><g><path d="M -15.828125 -26.375 C -14.710938 -28.238281 -13.625 -29.640625 -12.5625 -30.578125 C -11.5 -31.515625 -10.421875 -32.113281 -9.328125 -32.375 C -8.265625 -32.613281 -7.253906 -32.601562 -6.296875 -32.34375 C -5.335938 -32.09375 -4.1875 -31.570312 -2.84375 -30.78125 L 6.34375 -25.296875 C 9.289062 -23.523438 11.6875 -22.644531 13.53125 -22.65625 L 11.109375 -18.625 C 10.097656 -18.71875 9.003906 -19.015625 7.828125 -19.515625 C 8.160156 -17.398438 8.191406 -15.519531 7.921875 -13.875 C 7.648438 -12.226562 7.085938 -10.691406 6.234375 -9.265625 C 4.765625 -6.804688 3.007812 -5.226562 0.96875 -4.53125 C -1.0625 -3.832031 -3.0625 -4.070312 -5.03125 -5.25 C -6.039062 -5.863281 -6.882812 -6.691406 -7.5625 -7.734375 C -8.238281 -8.773438 -8.59375 -9.863281 -8.625 -11 C -8.6875 -12.21875 -8.578125 -13.359375 -8.296875 -14.421875 C -8.015625 -15.492188 -7.5625 -16.726562 -6.9375 -18.125 C -6.238281 -19.625 -5.597656 -21.144531 -5.015625 -22.6875 C -4.429688 -24.226562 -4.082031 -25.398438 -3.96875 -26.203125 L -4.9375 -26.78125 C -6.488281 -27.707031 -7.90625 -27.984375 -9.1875 -27.609375 C -10.46875 -27.242188 -11.710938 -26.050781 -12.921875 -24.03125 C -14.054688 -22.125 -14.535156 -20.554688 -14.359375 -19.328125 C -14.191406 -18.097656 -13.445312 -16.828125 -12.125 -15.515625 L -14.859375 -12.03125 C -17.003906 -14.019531 -18.128906 -16.1875 -18.234375 -18.53125 C -18.347656 -20.882812 -17.546875 -23.5 -15.828125 -26.375 Z M -2.921875 -18.0625 C -3.578125 -16.4375 -4.035156 -15.148438 -4.296875 -14.203125 C -4.554688 -13.265625 -4.585938 -12.378906 -4.390625 -11.546875 C -4.191406 -10.722656 -3.613281 -10.019531 -2.65625 -9.4375 C -1.507812 -8.757812 -0.375 -8.648438 0.75 -9.109375 C 1.875 -9.578125 2.890625 -10.566406 3.796875 -12.078125 C 4.328125 -12.960938 4.71875 -14.019531 4.96875 -15.25 C 5.21875 -16.488281 5.113281 -17.769531 4.65625 -19.09375 C 4.363281 -19.925781 3.921875 -20.679688 3.328125 -21.359375 C 2.742188 -22.035156 1.878906 -22.71875 0.734375 -23.40625 L -0.9375 -24.390625 C -1.164062 -22.941406 -1.828125 -20.832031 -2.921875 -18.0625 Z M -2.921875 -18.0625 "/></g></g></g><g fill="#ffffff" fill-opacity="1"><g transform="translate(335.771737, 251.831271)"><g><path d="M -21.859375 -20.84375 C -20.929688 -23.769531 -18.957031 -25.828125 -15.9375 -27.015625 L -18.953125 -27.96875 L -17.703125 -31.9375 L 4.53125 -24.921875 C 8.238281 -23.753906 10.835938 -22.414062 12.328125 -20.90625 C 13.597656 -19.601562 14.429688 -17.984375 14.828125 -16.046875 C 15.222656 -14.117188 15.015625 -11.867188 14.203125 -9.296875 C 13.523438 -7.148438 12.609375 -5.429688 11.453125 -4.140625 C 10.296875 -2.847656 9.03125 -1.992188 7.65625 -1.578125 C 6.289062 -1.171875 4.941406 -1.175781 3.609375 -1.59375 L 2.890625 -1.875 L 4.84375 -5.828125 L 4.9375 -5.796875 C 6.34375 -5.597656 7.515625 -5.878906 8.453125 -6.640625 C 9.390625 -7.398438 10.15625 -8.722656 10.75 -10.609375 C 11.144531 -11.878906 11.28125 -13.0625 11.15625 -14.15625 C 11.039062 -15.25 10.695312 -16.1875 10.125 -16.96875 C 9.601562 -17.675781 8.90625 -18.265625 8.03125 -18.734375 C 7.15625 -19.203125 6.054688 -19.644531 4.734375 -20.0625 L 2.859375 -20.65625 C 4.472656 -18.039062 4.851562 -15.382812 4 -12.6875 C 3.3125 -10.507812 2.160156 -8.757812 0.546875 -7.4375 C -1.054688 -6.125 -2.984375 -5.3125 -5.234375 -5 C -7.484375 -4.6875 -9.84375 -4.921875 -12.3125 -5.703125 C -14.914062 -6.523438 -17.054688 -7.703125 -18.734375 -9.234375 C -20.410156 -10.765625 -21.519531 -12.535156 -22.0625 -14.546875 C -22.613281 -16.566406 -22.546875 -18.664062 -21.859375 -20.84375 Z M -11.21875 -10.1875 C -8.09375 -9.195312 -5.507812 -9.078125 -3.46875 -9.828125 C -1.425781 -10.578125 -0.0625 -12.046875 0.625 -14.234375 C 0.90625 -15.140625 0.929688 -16.28125 0.703125 -17.65625 C 0.484375 -19.03125 -0.328125 -20.335938 -1.734375 -21.578125 C -2.859375 -22.535156 -4.457031 -23.34375 -6.53125 -24 C -9.5625 -24.957031 -12.109375 -25.046875 -14.171875 -24.265625 C -16.242188 -23.484375 -17.613281 -22.035156 -18.28125 -19.921875 C -18.90625 -17.941406 -18.597656 -16.050781 -17.359375 -14.25 C -16.128906 -12.445312 -14.082031 -11.09375 -11.21875 -10.1875 Z M -11.21875 -10.1875 "/></g></g></g></svg>