<svg xmlns="http://www.w3.org/2000/svg" xmlns:xlink="http://www.w3.org/1999/xlink" width="500" zoomAndPan="magnify" viewBox="0 0 375 374.999991" height="500" preserveAspectRatio="xMidYMid meet" version="1.0"><defs><g/><clipPath id="dcd2c9fa3a"><path d="M 124.5 122.492188 L 274.5 122.492188 L 274.5 272.492188 L 124.5 272.492188 Z M 124.5 122.492188 " clip-rule="nonzero"/></clipPath><clipPath id="a20f902a9e"><path d="M 5.191406 5.191406 L 369.808594 5.191406 L 369.808594 369.808594 L 5.191406 369.808594 Z M 5.191406 5.191406 " clip-rule="nonzero"/></clipPath><clipPath id="73f2130987"><path d="M 187.5 5.191406 C 86.8125 5.191406 5.191406 86.8125 5.191406 187.5 C 5.191406 288.1875 86.8125 369.808594 187.5 369.808594 C 288.1875 369.808594 369.808594 288.1875 369.808594 187.5 C 369.808594 86.8125 288.1875 5.191406 187.5 5.191406 Z M 187.5 5.191406 " clip-rule="nonzero"/></clipPath><clipPath id="801873dc1a"><path d="M 5.191406 5.191406 L 369.691406 5.191406 L 369.691406 369.691406 L 5.191406 369.691406 Z M 5.191406 5.191406 " clip-rule="nonzero"/></clipPath><clipPath id="0b8ce2885a"><path d="M 187.5 5.191406 C 86.8125 5.191406 5.191406 86.8125 5.191406 187.5 C 5.191406 288.1875 86.8125 369.808594 187.5 369.808594 C 288.1875 369.808594 369.808594 288.1875 369.808594 187.5 C 369.808594 86.8125 288.1875 5.191406 187.5 5.191406 Z M 187.5 5.191406 " clip-rule="nonzero"/></clipPath><clipPath id="2052641665"><path d="M 156 218 L 247 218 L 247 272.425781 L 156 272.425781 Z M 156 218 " clip-rule="nonzero"/></clipPath><clipPath id="9956230bcc"><path d="M 101.988281 149 L 272.988281 149 L 272.988281 171 L 101.988281 171 Z M 101.988281 149 " clip-rule="nonzero"/></clipPath><clipPath id="0d1b2849d3"><path d="M 40.261719 86 L 110 86 L 110 191.917969 L 40.261719 191.917969 Z M 40.261719 86 " clip-rule="nonzero"/></clipPath><clipPath id="a67cf4f201"><path d="M 89.921875 63.925781 L 129.972656 63.925781 L 129.972656 124.625 L 89.921875 124.625 Z M 89.921875 63.925781 " clip-rule="nonzero"/></clipPath></defs><g clip-path="url(#dcd2c9fa3a)"><path fill="#ffffff" d="M 274.5 197.492188 C 274.5 198.71875 274.46875 199.945312 274.410156 201.171875 C 274.347656 202.398438 274.257812 203.621094 274.140625 204.84375 C 274.019531 206.0625 273.867188 207.28125 273.6875 208.496094 C 273.507812 209.710938 273.296875 210.917969 273.058594 212.121094 C 272.820312 213.328125 272.550781 214.523438 272.253906 215.714844 C 271.953125 216.90625 271.625 218.085938 271.269531 219.261719 C 270.914062 220.4375 270.527344 221.601562 270.117188 222.757812 C 269.703125 223.914062 269.261719 225.058594 268.789062 226.191406 C 268.320312 227.328125 267.824219 228.449219 267.300781 229.558594 C 266.773438 230.667969 266.222656 231.761719 265.644531 232.847656 C 265.066406 233.929688 264.460938 234.996094 263.828125 236.046875 C 263.199219 237.101562 262.542969 238.136719 261.859375 239.160156 C 261.179688 240.179688 260.472656 241.183594 259.742188 242.167969 C 259.007812 243.15625 258.253906 244.121094 257.476562 245.070312 C 256.695312 246.019531 255.894531 246.949219 255.070312 247.859375 C 254.246094 248.765625 253.402344 249.65625 252.53125 250.523438 C 251.664062 251.390625 250.777344 252.238281 249.867188 253.0625 C 248.957031 253.886719 248.027344 254.6875 247.078125 255.46875 C 246.128906 256.246094 245.164062 257 244.175781 257.730469 C 243.191406 258.460938 242.1875 259.167969 241.167969 259.851562 C 240.148438 260.53125 239.109375 261.191406 238.058594 261.820312 C 237.003906 262.453125 235.9375 263.054688 234.855469 263.636719 C 233.773438 264.214844 232.675781 264.765625 231.566406 265.289062 C 230.457031 265.816406 229.335938 266.3125 228.203125 266.78125 C 227.066406 267.25 225.921875 267.691406 224.765625 268.105469 C 223.609375 268.519531 222.445312 268.90625 221.269531 269.261719 C 220.097656 269.617188 218.914062 269.945312 217.722656 270.242188 C 216.53125 270.542969 215.335938 270.808594 214.132812 271.050781 C 212.929688 271.289062 211.71875 271.5 210.503906 271.679688 C 209.289062 271.859375 208.074219 272.007812 206.851562 272.128906 C 205.628906 272.25 204.40625 272.339844 203.179688 272.402344 C 201.953125 272.460938 200.726562 272.492188 199.5 272.492188 C 198.273438 272.492188 197.046875 272.460938 195.820312 272.402344 C 194.59375 272.339844 193.371094 272.25 192.148438 272.128906 C 190.925781 272.007812 189.710938 271.859375 188.496094 271.679688 C 187.28125 271.5 186.070312 271.289062 184.867188 271.050781 C 183.664062 270.808594 182.46875 270.542969 181.277344 270.242188 C 180.085938 269.945312 178.902344 269.617188 177.730469 269.261719 C 176.554688 268.90625 175.390625 268.519531 174.234375 268.105469 C 173.078125 267.691406 171.933594 267.25 170.796875 266.78125 C 169.664062 266.3125 168.542969 265.816406 167.433594 265.289062 C 166.324219 264.765625 165.226562 264.214844 164.144531 263.636719 C 163.0625 263.054688 161.996094 262.453125 160.941406 261.820312 C 159.890625 261.191406 158.851562 260.53125 157.832031 259.851562 C 156.8125 259.167969 155.808594 258.460938 154.824219 257.730469 C 153.835938 257 152.871094 256.246094 151.921875 255.46875 C 150.972656 254.6875 150.042969 253.886719 149.132812 253.0625 C 148.222656 252.238281 147.335938 251.390625 146.46875 250.523438 C 145.597656 249.65625 144.753906 248.765625 143.929688 247.859375 C 143.105469 246.949219 142.304688 246.019531 141.523438 245.070312 C 140.746094 244.121094 139.992188 243.15625 139.257812 242.167969 C 138.527344 241.183594 137.820312 240.179688 137.140625 239.160156 C 136.457031 238.136719 135.800781 237.101562 135.171875 236.046875 C 134.539062 234.996094 133.933594 233.929688 133.355469 232.847656 C 132.777344 231.761719 132.226562 230.667969 131.699219 229.558594 C 131.175781 228.449219 130.679688 227.328125 130.210938 226.191406 C 129.738281 225.058594 129.296875 223.914062 128.882812 222.757812 C 128.46875 221.601562 128.085938 220.4375 127.730469 219.261719 C 127.375 218.085938 127.046875 216.90625 126.746094 215.714844 C 126.449219 214.523438 126.179688 213.328125 125.941406 212.121094 C 125.703125 210.917969 125.492188 209.710938 125.3125 208.496094 C 125.132812 207.28125 124.980469 206.0625 124.859375 204.84375 C 124.742188 203.621094 124.652344 202.398438 124.589844 201.171875 C 124.53125 199.945312 124.5 198.71875 124.5 197.492188 C 124.5 196.261719 124.53125 195.035156 124.589844 193.8125 C 124.652344 192.585938 124.742188 191.359375 124.859375 190.140625 C 124.980469 188.917969 125.132812 187.699219 125.3125 186.484375 C 125.492188 185.273438 125.703125 184.0625 125.941406 182.859375 C 126.179688 181.65625 126.449219 180.457031 126.746094 179.265625 C 127.046875 178.078125 127.375 176.894531 127.730469 175.71875 C 128.085938 174.546875 128.46875 173.378906 128.882812 172.222656 C 129.296875 171.070312 129.738281 169.921875 130.210938 168.789062 C 130.679688 167.65625 131.175781 166.535156 131.699219 165.425781 C 132.226562 164.316406 132.777344 163.21875 133.355469 162.136719 C 133.933594 161.054688 134.539062 159.984375 135.171875 158.933594 C 135.800781 157.878906 136.457031 156.84375 137.140625 155.824219 C 137.820312 154.800781 138.527344 153.800781 139.257812 152.8125 C 139.992188 151.828125 140.746094 150.859375 141.523438 149.910156 C 142.304688 148.960938 143.105469 148.035156 143.929688 147.125 C 144.753906 146.214844 145.597656 145.324219 146.46875 144.457031 C 147.335938 143.589844 148.222656 142.742188 149.132812 141.917969 C 150.042969 141.09375 150.972656 140.292969 151.921875 139.515625 C 152.871094 138.738281 153.835938 137.980469 154.824219 137.25 C 155.808594 136.519531 156.8125 135.8125 157.832031 135.128906 C 158.851562 134.449219 159.890625 133.792969 160.941406 133.160156 C 161.996094 132.53125 163.0625 131.925781 164.144531 131.347656 C 165.226562 130.769531 166.324219 130.214844 167.433594 129.691406 C 168.542969 129.167969 169.664062 128.667969 170.796875 128.199219 C 171.933594 127.730469 173.078125 127.289062 174.234375 126.875 C 175.390625 126.460938 176.554688 126.078125 177.730469 125.71875 C 178.902344 125.363281 180.085938 125.035156 181.277344 124.738281 C 182.46875 124.441406 183.664062 124.171875 184.867188 123.933594 C 186.070312 123.691406 187.28125 123.484375 188.496094 123.304688 C 189.710938 123.121094 190.925781 122.972656 192.148438 122.851562 C 193.371094 122.730469 194.59375 122.640625 195.820312 122.582031 C 197.046875 122.519531 198.273438 122.492188 199.5 122.492188 C 200.726562 122.492188 201.953125 122.519531 203.179688 122.582031 C 204.40625 122.640625 205.628906 122.730469 206.851562 122.851562 C 208.074219 122.972656 209.289062 123.121094 210.503906 123.304688 C 211.71875 123.484375 212.929688 123.691406 214.132812 123.933594 C 215.335938 124.171875 216.53125 124.441406 217.722656 124.738281 C 218.914062 125.035156 220.097656 125.363281 221.269531 125.71875 C 222.445312 126.078125 223.609375 126.460938 224.765625 126.875 C 225.921875 127.289062 227.066406 127.730469 228.203125 128.199219 C 229.335938 128.667969 230.457031 129.167969 231.566406 129.691406 C 232.675781 130.214844 233.773438 130.769531 234.855469 131.347656 C 235.9375 131.925781 237.003906 132.53125 238.058594 133.160156 C 239.109375 133.792969 240.148438 134.449219 241.167969 135.128906 C 242.1875 135.8125 243.191406 136.519531 244.175781 137.25 C 245.164062 137.980469 246.128906 138.738281 247.078125 139.515625 C 248.027344 140.292969 248.957031 141.09375 249.867188 141.917969 C 250.777344 142.742188 251.664062 143.589844 252.53125 144.457031 C 253.402344 145.324219 254.246094 146.214844 255.070312 147.125 C 255.894531 148.035156 256.695312 148.960938 257.476562 149.910156 C 258.253906 150.859375 259.007812 151.828125 259.742188 152.8125 C 260.472656 153.800781 261.179688 154.800781 261.859375 155.824219 C 262.542969 156.84375 263.199219 157.878906 263.828125 158.933594 C 264.460938 159.984375 265.066406 161.054688 265.644531 162.136719 C 266.222656 163.21875 266.773438 164.316406 267.300781 165.425781 C 267.824219 166.535156 268.320312 167.65625 268.789062 168.789062 C 269.261719 169.921875 269.703125 171.070312 270.117188 172.222656 C 270.527344 173.378906 270.914062 174.546875 271.269531 175.71875 C 271.625 176.894531 271.953125 178.078125 272.253906 179.265625 C 272.550781 180.457031 272.820312 181.65625 273.058594 182.859375 C 273.296875 184.0625 273.507812 185.273438 273.6875 186.484375 C 273.867188 187.699219 274.019531 188.917969 274.140625 190.140625 C 274.257812 191.359375 274.347656 192.585938 274.410156 193.8125 C 274.46875 195.035156 274.5 196.261719 274.5 197.492188 Z M 274.5 197.492188 " fill-opacity="1" fill-rule="nonzero"/></g><g clip-path="url(#a20f902a9e)"><g clip-path="url(#73f2130987)"><path fill="#ffffff" d="M 5.191406 5.191406 L 369.808594 5.191406 L 369.808594 369.808594 L 5.191406 369.808594 Z M 5.191406 5.191406 " fill-opacity="1" fill-rule="nonzero"/></g></g><g clip-path="url(#801873dc1a)"><g clip-path="url(#0b8ce2885a)"><path fill="#000000" d="M 175.652344 8.574219 C 172.710938 8.769531 169.78125 9.03125 166.859375 9.367188 L 166.175781 3.40625 C 169.195312 3.058594 172.222656 2.785156 175.261719 2.589844 Z M 163.914062 9.726562 C 160.988281 10.113281 158.074219 10.570312 155.175781 11.097656 L 154.101562 5.195312 C 157.097656 4.648438 160.109375 4.175781 163.132812 3.777344 Z M 152.292969 11.644531 C 149.390625 12.222656 146.503906 12.875 143.632812 13.59375 L 142.171875 7.777344 C 145.136719 7.03125 148.121094 6.359375 151.121094 5.761719 Z M 140.777344 14.335938 C 137.933594 15.101562 135.109375 15.9375 132.308594 16.84375 L 130.460938 11.136719 C 133.359375 10.199219 136.277344 9.335938 139.21875 8.542969 Z M 129.5 17.777344 C 126.707031 18.730469 123.9375 19.753906 121.195312 20.847656 L 118.976562 15.273438 C 121.8125 14.144531 124.671875 13.085938 127.558594 12.101562 Z M 118.472656 21.957031 C 115.746094 23.097656 113.050781 24.300781 110.378906 25.574219 L 107.796875 20.160156 C 110.554688 18.84375 113.34375 17.597656 116.164062 16.421875 Z M 107.726562 26.867188 C 105.089844 28.179688 102.480469 29.558594 99.910156 31.003906 L 96.972656 25.769531 C 99.632812 24.277344 102.328125 22.851562 105.054688 21.496094 Z M 97.34375 32.46875 C 94.792969 33.957031 92.28125 35.503906 89.808594 37.113281 L 86.535156 32.085938 C 89.09375 30.421875 91.6875 28.820312 94.324219 27.285156 Z M 87.351562 38.742188 C 84.902344 40.394531 82.496094 42.105469 80.132812 43.875 L 76.535156 39.074219 C 78.980469 37.242188 81.46875 35.472656 83.996094 33.769531 Z M 77.785156 45.664062 C 75.453125 47.472656 73.164062 49.335938 70.921875 51.253906 L 67.019531 46.699219 C 69.335938 44.714844 71.699219 42.789062 74.109375 40.921875 Z M 68.695312 53.195312 C 66.484375 55.152344 64.324219 57.160156 62.210938 59.222656 L 58.019531 54.933594 C 60.199219 52.800781 62.433594 50.722656 64.71875 48.703125 Z M 60.117188 61.304688 C 58.039062 63.402344 56.015625 65.546875 54.042969 67.742188 L 49.578125 63.734375 C 51.617188 61.464844 53.707031 59.246094 55.855469 57.082031 Z M 52.085938 69.957031 C 50.152344 72.183594 48.269531 74.460938 46.449219 76.78125 L 41.730469 73.074219 C 43.613281 70.675781 45.558594 68.324219 47.558594 66.023438 Z M 44.644531 79.113281 C 42.855469 81.46875 41.128906 83.863281 39.457031 86.296875 L 34.507812 82.90625 C 36.234375 80.390625 38.019531 77.914062 39.867188 75.484375 Z M 37.8125 88.746094 C 36.183594 91.207031 34.617188 93.707031 33.117188 96.246094 L 27.953125 93.1875 C 29.507812 90.5625 31.125 87.980469 32.808594 85.4375 Z M 31.632812 98.796875 C 30.167969 101.363281 28.769531 103.960938 27.4375 106.589844 L 22.085938 103.878906 C 23.464844 101.160156 24.90625 98.476562 26.417969 95.828125 Z M 26.128906 109.234375 C 24.835938 111.894531 23.609375 114.582031 22.453125 117.300781 L 16.929688 114.953125 C 18.128906 112.140625 19.394531 109.359375 20.730469 106.609375 Z M 21.320312 120.019531 C 20.210938 122.75 19.167969 125.507812 18.195312 128.292969 L 12.53125 126.3125 C 13.539062 123.433594 14.613281 120.585938 15.761719 117.761719 Z M 17.242188 131.09375 C 16.316406 133.890625 15.457031 136.710938 14.671875 139.554688 L 8.890625 137.953125 C 9.703125 135.015625 10.589844 132.101562 11.546875 129.207031 Z M 13.910156 142.398438 C 13.167969 145.265625 12.496094 148.148438 11.898438 151.050781 L 6.023438 149.835938 C 6.640625 146.835938 7.332031 143.855469 8.101562 140.894531 Z M 11.328125 153.929688 C 10.78125 156.820312 10.304688 159.730469 9.898438 162.648438 L 3.957031 161.824219 C 4.375 158.808594 4.867188 155.800781 5.433594 152.8125 Z M 9.515625 165.585938 C 9.160156 168.511719 8.875 171.445312 8.664062 174.386719 L 2.679688 173.953125 C 2.898438 170.914062 3.191406 167.882812 3.558594 164.863281 Z M 8.476562 177.324219 C 8.308594 180.28125 8.214844 183.242188 8.195312 186.210938 L 2.195312 186.167969 C 2.21875 183.101562 2.3125 180.042969 2.484375 176.988281 Z M 8.199219 189.195312 C 8.226562 192.164062 8.324219 195.125 8.496094 198.078125 L 2.507812 198.425781 C 2.332031 195.375 2.226562 192.316406 2.199219 189.25 Z M 8.691406 201.011719 C 8.910156 203.957031 9.203125 206.890625 9.566406 209.816406 L 3.609375 210.554688 C 3.234375 207.53125 2.933594 204.5 2.707031 201.457031 Z M 9.953125 212.75 C 10.367188 215.667969 10.847656 218.574219 11.402344 221.464844 L 5.511719 222.59375 C 4.9375 219.605469 4.4375 216.605469 4.011719 213.585938 Z M 11.980469 224.347656 C 12.585938 227.246094 13.261719 230.128906 14.011719 232.988281 L 8.207031 234.507812 C 7.433594 231.546875 6.734375 228.570312 6.105469 225.574219 Z M 14.78125 235.835938 C 15.574219 238.675781 16.4375 241.492188 17.371094 244.289062 L 11.679688 246.191406 C 10.714844 243.296875 9.820312 240.382812 9 237.449219 Z M 18.328125 247.089844 C 19.308594 249.867188 20.355469 252.625 21.472656 255.351562 L 15.917969 257.625 C 14.765625 254.804688 13.683594 251.957031 12.671875 249.082031 Z M 22.609375 258.070312 C 23.773438 260.785156 25.007812 263.472656 26.304688 266.128906 L 20.914062 268.761719 C 19.570312 266.015625 18.300781 263.242188 17.097656 260.433594 Z M 27.621094 268.765625 C 28.960938 271.394531 30.363281 273.992188 31.832031 276.550781 L 26.625 279.535156 C 25.109375 276.890625 23.660156 274.207031 22.273438 271.492188 Z M 33.320312 279.101562 C 34.832031 281.636719 36.402344 284.132812 38.035156 286.589844 L 33.035156 289.910156 C 31.347656 287.371094 29.726562 284.789062 28.167969 282.171875 Z M 39.6875 289.035156 C 41.363281 291.46875 43.09375 293.855469 44.886719 296.207031 L 40.117188 299.847656 C 38.265625 297.417969 36.476562 294.949219 34.746094 292.4375 Z M 46.699219 298.535156 C 48.527344 300.851562 50.410156 303.121094 52.351562 305.347656 L 47.832031 309.292969 C 45.828125 306.992188 43.878906 304.648438 41.988281 302.253906 Z M 54.3125 307.554688 C 56.289062 309.746094 58.320312 311.890625 60.402344 313.980469 L 56.148438 318.214844 C 53.996094 316.050781 51.898438 313.839844 49.855469 311.574219 Z M 62.5 316.054688 C 64.617188 318.113281 66.78125 320.121094 68.996094 322.070312 L 65.03125 326.574219 C 62.742188 324.554688 60.503906 322.484375 58.316406 320.359375 Z M 71.230469 324.003906 C 73.476562 325.921875 75.765625 327.78125 78.101562 329.582031 L 74.441406 334.332031 C 72.023438 332.472656 69.65625 330.550781 67.335938 328.570312 Z M 80.457031 331.363281 C 82.824219 333.128906 85.234375 334.835938 87.6875 336.480469 L 84.34375 341.464844 C 81.808594 339.761719 79.316406 338 76.871094 336.175781 Z M 90.148438 338.105469 C 92.625 339.710938 95.140625 341.253906 97.691406 342.730469 L 94.683594 347.921875 C 92.046875 346.394531 89.445312 344.800781 86.886719 343.140625 Z M 100.261719 344.195312 C 102.839844 345.632812 105.449219 347.003906 108.089844 348.3125 L 105.429688 353.6875 C 102.699219 352.335938 100 350.917969 97.339844 349.433594 Z M 110.746094 349.597656 C 113.417969 350.863281 116.117188 352.0625 118.84375 353.195312 L 116.546875 358.738281 C 113.726562 357.566406 110.933594 356.328125 108.175781 355.019531 Z M 121.570312 354.300781 C 124.316406 355.386719 127.085938 356.402344 129.882812 357.351562 L 127.953125 363.03125 C 125.066406 362.054688 122.203125 361.003906 119.363281 359.878906 Z M 132.691406 358.277344 C 135.5 359.179688 138.324219 360.007812 141.167969 360.765625 L 139.621094 366.5625 C 136.679688 365.777344 133.761719 364.921875 130.859375 363.992188 Z M 144.027344 361.503906 C 146.894531 362.21875 149.78125 362.859375 152.6875 363.429688 L 151.527344 369.320312 C 148.527344 368.726562 145.542969 368.0625 142.578125 367.324219 Z M 155.570312 363.972656 C 158.472656 364.496094 161.386719 364.945312 164.316406 365.324219 L 163.550781 371.273438 C 160.523438 370.882812 157.507812 370.417969 154.507812 369.878906 Z M 167.261719 365.679688 C 170.183594 366.007812 173.113281 366.261719 176.054688 366.449219 L 175.679688 372.4375 C 172.640625 372.246094 169.613281 371.980469 166.59375 371.640625 Z M 179 366.609375 C 181.828125 366.742188 184.660156 366.808594 187.5 366.808594 L 187.910156 366.808594 L 187.917969 372.808594 L 187.5 372.808594 C 184.566406 372.808594 181.640625 372.738281 178.71875 372.605469 Z M 190.886719 366.777344 C 193.847656 366.722656 196.800781 366.59375 199.746094 366.394531 L 200.152344 372.382812 C 197.109375 372.589844 194.054688 372.71875 190.996094 372.777344 Z M 202.675781 366.175781 C 205.625 365.929688 208.558594 365.609375 211.484375 365.21875 L 212.28125 371.164062 C 209.257812 371.570312 206.222656 371.898438 203.175781 372.152344 Z M 214.414062 364.800781 C 217.324219 364.363281 220.21875 363.855469 223.101562 363.273438 L 224.285156 369.15625 C 221.304688 369.757812 218.3125 370.28125 215.304688 370.734375 Z M 225.996094 362.664062 C 228.886719 362.035156 231.757812 361.332031 234.609375 360.554688 L 236.179688 366.347656 C 233.234375 367.148438 230.265625 367.875 227.28125 368.527344 Z M 237.441406 359.761719 C 240.277344 358.941406 243.09375 358.050781 245.882812 357.089844 L 247.835938 362.761719 C 244.949219 363.753906 242.042969 364.675781 239.109375 365.523438 Z M 248.667969 356.105469 C 251.4375 355.101562 254.179688 354.027344 256.894531 352.886719 L 259.21875 358.417969 C 256.414062 359.597656 253.578125 360.707031 250.714844 361.746094 Z M 259.613281 351.71875 C 262.316406 350.527344 264.988281 349.273438 267.632812 347.949219 L 270.316406 353.316406 C 267.585938 354.683594 264.824219 355.980469 262.027344 357.210938 Z M 270.253906 346.609375 C 272.871094 345.246094 275.457031 343.816406 278.003906 342.324219 L 281.039062 347.503906 C 278.402344 349.046875 275.734375 350.523438 273.027344 351.929688 Z M 280.539062 340.8125 C 283.058594 339.28125 285.539062 337.6875 287.980469 336.03125 L 291.347656 340.996094 C 288.824219 342.707031 286.261719 344.355469 283.65625 345.9375 Z M 290.414062 334.351562 C 292.828125 332.65625 295.203125 330.902344 297.535156 329.085938 L 301.21875 333.820312 C 298.808594 335.695312 296.359375 337.511719 293.859375 339.261719 Z M 299.847656 327.257812 C 302.144531 325.40625 304.398438 323.5 306.605469 321.535156 L 310.59375 326.019531 C 308.3125 328.046875 305.984375 330.015625 303.609375 331.929688 Z M 308.796875 319.558594 C 310.96875 317.558594 313.09375 315.511719 315.164062 313.40625 L 319.4375 317.621094 C 317.296875 319.792969 315.101562 321.910156 312.855469 323.972656 Z M 317.21875 311.289062 C 319.257812 309.15625 321.242188 306.96875 323.175781 304.738281 L 327.714844 308.660156 C 325.71875 310.96875 323.667969 313.226562 321.5625 315.433594 Z M 325.089844 302.488281 C 326.984375 300.222656 328.820312 297.914062 330.597656 295.5625 L 335.386719 299.183594 C 333.546875 301.613281 331.648438 304 329.691406 306.335938 Z M 332.359375 293.195312 C 334.105469 290.808594 335.785156 288.382812 337.410156 285.917969 L 342.421875 289.214844 C 340.746094 291.761719 339.007812 294.269531 337.203125 296.734375 Z M 339.007812 283.441406 C 340.589844 280.945312 342.109375 278.417969 343.566406 275.847656 L 348.785156 278.808594 C 347.28125 281.460938 345.710938 284.078125 344.074219 286.65625 Z M 345.007812 273.265625 C 346.417969 270.675781 347.765625 268.054688 349.046875 265.402344 L 354.449219 268.011719 C 353.125 270.753906 351.734375 273.464844 350.273438 276.136719 Z M 350.308594 262.734375 C 351.550781 260.050781 352.722656 257.34375 353.828125 254.605469 L 359.390625 256.851562 C 358.25 259.683594 357.035156 262.484375 355.753906 265.253906 Z M 354.910156 251.867188 C 355.96875 249.109375 356.960938 246.328125 357.882812 243.523438 L 363.582031 245.394531 C 362.628906 248.296875 361.605469 251.171875 360.507812 254.023438 Z M 358.785156 240.699219 C 359.65625 237.890625 360.457031 235.058594 361.191406 232.207031 L 367 233.699219 C 366.246094 236.644531 365.417969 239.574219 364.515625 242.476562 Z M 361.902344 229.339844 C 362.585938 226.46875 363.203125 223.582031 363.746094 220.675781 L 369.644531 221.777344 C 369.082031 224.78125 368.445312 227.765625 367.738281 230.734375 Z M 364.261719 217.78125 C 364.757812 214.871094 365.179688 211.945312 365.53125 209.007812 L 371.488281 209.71875 C 371.125 212.757812 370.6875 215.777344 370.175781 218.789062 Z M 365.859375 206.054688 C 366.160156 203.136719 366.386719 200.207031 366.546875 197.273438 L 372.539062 197.59375 C 372.375 200.628906 372.136719 203.652344 371.828125 206.667969 Z M 366.679688 194.320312 C 366.765625 192.050781 366.808594 189.777344 366.808594 187.5 L 366.796875 185.378906 L 372.796875 185.34375 L 372.808594 187.5 C 372.808594 189.851562 372.765625 192.199219 372.675781 194.542969 Z M 366.738281 182.425781 C 366.65625 179.46875 366.5 176.523438 366.277344 173.585938 L 372.257812 173.125 C 372.492188 176.160156 372.652344 179.207031 372.734375 182.257812 Z M 366.027344 170.664062 C 365.753906 167.714844 365.40625 164.773438 364.988281 161.847656 L 370.925781 160.996094 C 371.359375 164.023438 371.71875 167.058594 372.003906 170.109375 Z M 364.542969 158.929688 C 364.078125 156.023438 363.542969 153.128906 362.933594 150.253906 L 368.804688 149.011719 C 369.433594 151.988281 369.988281 154.976562 370.46875 157.980469 Z M 362.296875 147.355469 C 361.640625 144.476562 360.910156 141.617188 360.109375 138.777344 L 365.886719 137.148438 C 366.710938 140.085938 367.464844 143.042969 368.148438 146.019531 Z M 359.289062 135.953125 C 358.441406 133.125 357.523438 130.316406 356.535156 127.53125 L 362.191406 125.523438 C 363.210938 128.402344 364.160156 131.304688 365.039062 134.230469 Z M 355.523438 124.757812 C 354.492188 121.996094 353.394531 119.261719 352.226562 116.558594 L 357.738281 114.179688 C 358.945312 116.980469 360.078125 119.804688 361.144531 122.65625 Z M 351.035156 113.851562 C 349.820312 111.160156 348.539062 108.5 347.195312 105.871094 L 352.535156 103.136719 C 353.925781 105.855469 355.25 108.601562 356.503906 111.382812 Z M 345.832031 103.261719 C 344.441406 100.65625 342.988281 98.085938 341.46875 95.550781 L 346.617188 92.46875 C 348.1875 95.089844 349.6875 97.746094 351.125 100.441406 Z M 339.933594 93.03125 C 338.378906 90.523438 336.761719 88.058594 335.082031 85.632812 L 340.015625 82.21875 C 341.75 84.726562 343.421875 87.277344 345.03125 89.863281 Z M 333.382812 83.214844 C 331.664062 80.816406 329.886719 78.460938 328.050781 76.148438 L 332.75 72.417969 C 334.648438 74.808594 336.484375 77.242188 338.257812 79.722656 Z M 326.199219 73.851562 C 324.328125 71.570312 322.398438 69.332031 320.414062 67.144531 L 324.863281 63.117188 C 326.910156 65.378906 328.902344 67.6875 330.839844 70.046875 Z M 318.414062 64.972656 C 316.398438 62.820312 314.328125 60.714844 312.207031 58.660156 L 316.382812 54.351562 C 318.574219 56.472656 320.710938 58.644531 322.796875 60.871094 Z M 310.070312 56.625 C 307.917969 54.605469 305.714844 52.640625 303.460938 50.730469 L 307.34375 46.15625 C 309.671875 48.128906 311.945312 50.160156 314.171875 52.246094 Z M 301.195312 48.839844 C 298.914062 46.964844 296.589844 45.152344 294.21875 43.394531 L 297.792969 38.574219 C 300.242188 40.390625 302.644531 42.265625 305.003906 44.203125 Z M 291.832031 41.652344 C 289.433594 39.933594 286.992188 38.273438 284.511719 36.675781 L 287.765625 31.632812 C 290.328125 33.285156 292.847656 35 295.328125 36.777344 Z M 282.019531 35.097656 C 279.511719 33.539062 276.964844 32.042969 274.382812 30.609375 L 277.292969 25.363281 C 279.964844 26.84375 282.59375 28.390625 285.1875 30.003906 Z M 271.789062 29.199219 C 269.1875 27.808594 266.554688 26.484375 263.886719 25.230469 L 266.449219 19.800781 C 269.203125 21.101562 271.925781 22.46875 274.617188 23.902344 Z M 261.207031 23.992188 C 258.515625 22.777344 255.796875 21.628906 253.050781 20.550781 L 255.246094 14.964844 C 258.085938 16.082031 260.894531 17.265625 263.675781 18.523438 Z M 250.300781 19.496094 C 247.53125 18.460938 244.738281 17.492188 241.917969 16.597656 L 243.738281 10.878906 C 246.652344 11.804688 249.539062 12.804688 252.402344 13.875 Z M 239.105469 15.726562 C 236.28125 14.878906 233.441406 14.105469 230.582031 13.398438 L 232.015625 7.574219 C 234.972656 8.304688 237.910156 9.105469 240.828125 9.980469 Z M 227.703125 12.714844 C 224.828125 12.054688 221.9375 11.46875 219.03125 10.953125 L 220.082031 5.046875 C 223.085938 5.578125 226.070312 6.1875 229.042969 6.867188 Z M 216.128906 10.464844 C 213.210938 9.996094 210.277344 9.597656 207.332031 9.273438 L 207.988281 3.3125 C 211.03125 3.644531 214.0625 4.054688 217.082031 4.539062 Z M 204.394531 8.976562 C 201.472656 8.703125 198.539062 8.5 195.59375 8.371094 L 195.863281 2.375 C 198.902344 2.511719 201.933594 2.71875 204.953125 3.003906 Z M 192.636719 8.261719 C 190.925781 8.214844 189.214844 8.191406 187.5 8.191406 C 184.523438 8.191406 181.558594 8.261719 178.597656 8.40625 L 178.304688 2.414062 C 181.363281 2.265625 184.425781 2.191406 187.5 2.191406 C 189.269531 2.191406 191.039062 2.214844 192.804688 2.265625 Z M 192.636719 8.261719 " fill-opacity="1" fill-rule="nonzero"/></g></g><g clip-path="url(#2052641665)"><path fill="#000000" d="M 246.863281 249.390625 C 243.0625 252.011719 238.582031 253.578125 233.964844 253.863281 C 229.148438 254.15625 224.277344 253.058594 220.050781 250.722656 C 219.125 252.304688 218.144531 253.808594 217.109375 255.230469 C 209.382812 265.980469 198.953125 272.40625 187.496094 272.40625 C 175.859375 272.40625 164.976562 265.65625 156.925781 253.699219 C 157.917969 251.808594 158.535156 249.742188 158.777344 247.417969 C 158.804688 247.140625 158.832031 246.855469 158.84375 246.5625 C 166.078125 259.59375 176.492188 267.039062 187.496094 267.039062 C 205.867188 267.039062 221.78125 246.050781 224.773438 218.058594 L 229.214844 224.914062 L 238.972656 239.960938 C 240.957031 243.046875 243.210938 246.546875 246.539062 249.152344 C 246.648438 249.230469 246.753906 249.3125 246.863281 249.390625 " fill-opacity="1" fill-rule="nonzero"/></g><path fill="#000000" d="M 199.519531 175.882812 C 198.875 177.222656 198.175781 178.539062 197.410156 179.828125 C 197.25 180.136719 197.074219 180.445312 196.875 180.742188 C 196.632812 181.167969 196.367188 181.597656 196.082031 182.027344 C 195.882812 182.335938 195.679688 182.644531 195.476562 182.953125 C 195.398438 183.089844 195.320312 183.210938 195.210938 183.328125 C 194.820312 183.917969 194.40625 184.511719 193.976562 185.085938 C 193.347656 185.945312 192.6875 186.792969 192.003906 187.609375 C 191.761719 187.90625 191.519531 188.203125 191.265625 188.496094 C 190.675781 189.179688 190.070312 189.851562 189.441406 190.507812 C 189.039062 190.953125 188.621094 191.382812 188.191406 191.796875 C 188.097656 191.878906 188.015625 191.972656 187.925781 192.050781 C 187.46875 192.496094 187.011719 192.9375 186.542969 193.367188 C 185.535156 194.28125 184.515625 195.167969 183.441406 195.996094 C 183.09375 196.28125 182.730469 196.5625 182.367188 196.832031 C 182.21875 196.949219 182.074219 197.058594 181.925781 197.152344 C 181.46875 197.515625 181 197.835938 180.53125 198.15625 C 179.082031 199.179688 177.578125 200.105469 176.035156 200.964844 C 175.484375 201.273438 174.933594 201.582031 174.371094 201.863281 C 173.566406 202.277344 172.746094 202.667969 171.925781 203.042969 C 170.84375 203.527344 169.726562 203.996094 168.613281 204.464844 C 162.761719 206.933594 156.148438 209.738281 152.859375 215.910156 C 149.585938 222.085938 150.925781 228.875 152.242188 235.449219 C 153.046875 239.527344 153.8125 243.382812 153.4375 246.855469 C 153.25 248.683594 152.75 250.25 151.921875 251.648438 C 148.429688 257.511719 140.058594 258.15625 136.636719 258.167969 L 136.582031 258.167969 C 127.765625 258.167969 115.339844 254.960938 108.804688 247.917969 C 103.515625 242.226562 104.671875 232.363281 107.5 225.035156 L 122.453125 186.230469 C 123.710938 182.925781 125.082031 179.410156 126.542969 175.882812 L 199.519531 175.882812 " fill-opacity="1" fill-rule="nonzero"/><path fill="#000000" d="M 263.394531 234.898438 C 263.394531 237.300781 263.179688 239.394531 262.535156 241.339844 C 261.621094 244.09375 259.824219 246.160156 257.675781 246.882812 C 254.941406 247.824219 251.828125 246.492188 249.855469 244.9375 C 247.238281 242.886719 245.238281 239.785156 243.480469 237.046875 L 229.792969 215.925781 L 221.859375 203.671875 C 221.109375 202.519531 220.371094 201.363281 219.632812 200.210938 C 217.957031 197.539062 216.347656 194.882812 214.894531 192.226562 C 214.546875 191.597656 214.210938 190.953125 213.890625 190.320312 C 213.609375 189.769531 213.339844 189.234375 213.070312 188.683594 C 212.976562 188.496094 212.882812 188.292969 212.789062 188.105469 C 212.535156 187.570312 212.28125 187.035156 212.050781 186.496094 C 212.023438 186.429688 211.996094 186.375 211.972656 186.308594 C 211.742188 185.8125 211.542969 185.328125 211.355469 184.832031 C 210.910156 183.761719 210.507812 182.683594 210.160156 181.613281 C 210.050781 181.316406 209.957031 181.023438 209.878906 180.742188 C 209.730469 180.257812 209.582031 179.785156 209.449219 179.304688 C 209.316406 178.820312 209.195312 178.324219 209.085938 177.828125 C 209.074219 177.773438 209.058594 177.707031 209.046875 177.640625 C 208.910156 177.0625 208.789062 176.484375 208.683594 175.894531 L 208.683594 175.882812 L 246.699219 175.882812 C 256.738281 193.164062 262.496094 212.636719 263.328125 232.296875 C 263.367188 233.210938 263.394531 234.066406 263.394531 234.898438 " fill-opacity="1" fill-rule="nonzero"/><path fill="#000000" d="M 200.242188 238.632812 C 200.242188 240.105469 199.035156 241.3125 197.558594 241.3125 L 177.429688 241.3125 C 175.953125 241.3125 174.746094 240.105469 174.746094 238.632812 C 174.746094 237.15625 175.953125 235.945312 177.429688 235.945312 L 197.558594 235.945312 C 199.035156 235.945312 200.242188 237.15625 200.242188 238.632812 " fill-opacity="1" fill-rule="nonzero"/><g clip-path="url(#9956230bcc)"><path fill="#000000" d="M 273.003906 170.515625 L 101.988281 170.515625 L 137.617188 149.070312 L 237.375 149.070312 L 273.003906 170.515625 " fill-opacity="1" fill-rule="nonzero"/></g><path fill="#000000" d="M 187.84375 84.308594 C 187.84375 85.785156 189.039062 86.992188 190.527344 86.992188 L 200.925781 86.992188 L 226.519531 131.570312 L 144.726562 131.570312 L 154.121094 103.914062 C 163.96875 82.941406 183.402344 68.058594 206.199219 64.003906 C 211.648438 65.347656 216.722656 67.710938 221.257812 70.996094 C 225.242188 73.921875 228.652344 77.410156 231.390625 81.425781 L 230.15625 80.710938 C 221.242188 75.558594 210.144531 75.949219 201.636719 81.625 L 190.527344 81.625 C 189.039062 81.625 187.84375 82.832031 187.84375 84.308594 " fill-opacity="1" fill-rule="nonzero"/><path fill="#000000" d="M 233.46875 143.703125 L 140.621094 143.703125 L 142.917969 136.9375 L 229.5625 136.9375 L 233.46875 143.703125 " fill-opacity="1" fill-rule="nonzero"/><g clip-path="url(#0d1b2849d3)"><path fill="#000000" d="M 75.121094 86.363281 L 79.25 126.410156 C 79.71875 130.96875 83.125 134.648438 87.566406 135.390625 L 109.980469 139.140625 L 87.566406 142.890625 C 83.125 143.632812 79.71875 147.3125 79.25 151.871094 L 75.121094 191.917969 L 70.996094 151.871094 C 70.527344 147.3125 67.121094 143.632812 62.675781 142.890625 L 40.261719 139.140625 L 62.675781 135.390625 C 67.121094 134.648438 70.527344 130.96875 70.996094 126.410156 L 75.121094 86.363281 " fill-opacity="1" fill-rule="nonzero"/></g><g clip-path="url(#a67cf4f201)"><path fill="#000000" d="M 109.980469 63.929688 L 112.347656 86.894531 C 112.617188 89.511719 114.570312 91.617188 117.117188 92.042969 L 129.972656 94.195312 L 117.117188 96.347656 C 114.570312 96.773438 112.617188 98.882812 112.347656 101.496094 L 109.980469 124.464844 L 107.613281 101.496094 C 107.347656 98.882812 105.394531 96.773438 102.84375 96.347656 L 89.988281 94.195312 L 102.84375 92.042969 C 105.394531 91.617188 107.347656 89.511719 107.613281 86.894531 L 109.980469 63.929688 " fill-opacity="1" fill-rule="nonzero"/></g><g fill="#000000" fill-opacity="1"><g transform="translate(119.910601, 326.347605)"><g><path d="M 24.828125 -18.6875 C 26.878906 -17.78125 28.457031 -16.46875 29.5625 -14.75 C 30.675781 -13.03125 31.253906 -11.054688 31.296875 -8.828125 C 31.335938 -6.597656 30.820312 -4.265625 29.75 -1.828125 C 28.582031 0.828125 27.097656 2.929688 25.296875 4.484375 C 23.492188 6.046875 21.554688 6.992188 19.484375 7.328125 C 17.410156 7.660156 15.394531 7.394531 13.4375 6.53125 C 12.15625 5.96875 11.09375 5.171875 10.25 4.140625 C 9.40625 3.117188 8.796875 1.96875 8.421875 0.6875 L 3.203125 12.546875 L -0.921875 10.734375 L 13.859375 -22.84375 L 17.609375 -21.203125 L 16.234375 -18.078125 C 17.679688 -18.929688 19.078125 -19.421875 20.421875 -19.546875 C 21.765625 -19.679688 23.234375 -19.394531 24.828125 -18.6875 Z M 12.15625 -8.953125 C 10.863281 -6.015625 10.460938 -3.5 10.953125 -1.40625 C 11.453125 0.6875 12.6875 2.164062 14.65625 3.03125 C 16.582031 3.882812 18.523438 3.773438 20.484375 2.703125 C 22.453125 1.640625 24.109375 -0.421875 25.453125 -3.484375 C 26.710938 -6.347656 27.113281 -8.867188 26.65625 -11.046875 C 26.195312 -13.234375 24.988281 -14.757812 23.03125 -15.625 C 21.75 -16.1875 20.429688 -16.285156 19.078125 -15.921875 C 17.734375 -15.566406 16.445312 -14.785156 15.21875 -13.578125 C 14 -12.367188 12.976562 -10.828125 12.15625 -8.953125 Z M 12.15625 -8.953125 "/></g></g></g><g fill="#000000" fill-opacity="1"><g transform="translate(152.814946, 339.924129)"><g><path d="M 19.203125 -24.03125 C 21.335938 -23.632812 23.03125 -23.101562 24.28125 -22.4375 C 25.53125 -21.78125 26.46875 -20.976562 27.09375 -20.03125 C 27.675781 -19.113281 28.019531 -18.160156 28.125 -17.171875 C 28.226562 -16.191406 28.140625 -14.9375 27.859375 -13.40625 L 25.921875 -2.875 C 25.296875 0.5 25.304688 3.050781 25.953125 4.78125 L 21.328125 3.921875 C 21.066406 2.941406 20.960938 1.8125 21.015625 0.53125 C 19.160156 1.570312 17.414062 2.253906 15.78125 2.578125 C 14.144531 2.898438 12.503906 2.910156 10.859375 2.609375 C 8.046875 2.085938 5.957031 0.992188 4.59375 -0.671875 C 3.226562 -2.335938 2.753906 -4.300781 3.171875 -6.5625 C 3.390625 -7.726562 3.867188 -8.804688 4.609375 -9.796875 C 5.347656 -10.785156 6.242188 -11.492188 7.296875 -11.921875 C 8.421875 -12.398438 9.53125 -12.691406 10.625 -12.796875 C 11.726562 -12.910156 13.046875 -12.921875 14.578125 -12.828125 C 16.234375 -12.691406 17.882812 -12.617188 19.53125 -12.609375 C 21.175781 -12.609375 22.390625 -12.6875 23.171875 -12.84375 L 23.375 -13.953125 C 23.707031 -15.734375 23.472656 -17.160156 22.671875 -18.234375 C 21.878906 -19.316406 20.328125 -20.070312 18.015625 -20.5 C 15.835938 -20.894531 14.203125 -20.796875 13.109375 -20.203125 C 12.015625 -19.617188 11.082031 -18.476562 10.3125 -16.78125 L 6.09375 -18.109375 C 7.207031 -20.816406 8.847656 -22.628906 11.015625 -23.546875 C 13.179688 -24.472656 15.910156 -24.632812 19.203125 -24.03125 Z M 15.90625 -9.046875 C 14.15625 -9.085938 12.796875 -9.066406 11.828125 -8.984375 C 10.859375 -8.898438 10.015625 -8.617188 9.296875 -8.140625 C 8.585938 -7.671875 8.128906 -6.878906 7.921875 -5.765625 C 7.679688 -4.460938 7.972656 -3.363281 8.796875 -2.46875 C 9.628906 -1.570312 10.914062 -0.960938 12.65625 -0.640625 C 13.65625 -0.453125 14.78125 -0.457031 16.03125 -0.65625 C 17.289062 -0.863281 18.453125 -1.40625 19.515625 -2.28125 C 20.203125 -2.84375 20.753906 -3.519531 21.171875 -4.3125 C 21.597656 -5.101562 21.9375 -6.15625 22.1875 -7.46875 L 22.53125 -9.375 C 21.09375 -9.082031 18.882812 -8.972656 15.90625 -9.046875 Z M 15.90625 -9.046875 "/></g></g></g><g fill="#000000" fill-opacity="1"><g transform="translate(187.963125, 345.547577)"><g><path d="M 13.796875 -27.84375 C 16.035156 -27.957031 18.035156 -27.492188 19.796875 -26.453125 C 21.566406 -25.421875 22.972656 -23.914062 24.015625 -21.9375 C 25.054688 -19.96875 25.644531 -17.648438 25.78125 -14.984375 C 25.925781 -12.085938 25.539062 -9.539062 24.625 -7.34375 C 23.707031 -5.144531 22.398438 -3.429688 20.703125 -2.203125 C 19.015625 -0.972656 17.097656 -0.300781 14.953125 -0.1875 C 13.554688 -0.125 12.242188 -0.359375 11.015625 -0.890625 C 9.796875 -1.429688 8.734375 -2.191406 7.828125 -3.171875 L 8.484375 9.765625 L 4 10 L 2.140625 -26.640625 L 6.21875 -26.859375 L 6.390625 -23.4375 C 7.304688 -24.84375 8.332031 -25.90625 9.46875 -26.625 C 10.613281 -27.351562 12.054688 -27.757812 13.796875 -27.84375 Z M 6.84375 -13.453125 C 7 -10.242188 7.769531 -7.816406 9.15625 -6.171875 C 10.539062 -4.523438 12.304688 -3.753906 14.453125 -3.859375 C 16.566406 -3.972656 18.257812 -4.945312 19.53125 -6.78125 C 20.800781 -8.613281 21.347656 -11.203125 21.171875 -14.546875 C 21.015625 -17.679688 20.242188 -20.113281 18.859375 -21.84375 C 17.484375 -23.582031 15.722656 -24.398438 13.578125 -24.296875 C 12.179688 -24.222656 10.957031 -23.722656 9.90625 -22.796875 C 8.851562 -21.867188 8.050781 -20.59375 7.5 -18.96875 C 6.957031 -17.34375 6.738281 -15.503906 6.84375 -13.453125 Z M 6.84375 -13.453125 "/></g></g></g><g fill="#000000" fill-opacity="1"><g transform="translate(223.460833, 342.915045)"><g><path d="M 6.21875 -30.046875 C 8.6875 -30.765625 10.960938 -30.796875 13.046875 -30.140625 C 15.140625 -29.492188 16.914062 -28.316406 18.375 -26.609375 C 19.832031 -24.898438 20.910156 -22.832031 21.609375 -20.40625 L 22.015625 -19.03125 L 3 -13.5 C 3.925781 -10.820312 5.3125 -8.925781 7.15625 -7.8125 C 9 -6.695312 11.023438 -6.460938 13.234375 -7.109375 C 14.898438 -7.585938 16.148438 -8.429688 16.984375 -9.640625 C 17.828125 -10.847656 18.296875 -12.382812 18.390625 -14.25 L 23.015625 -15.015625 C 23.078125 -12.253906 22.359375 -9.863281 20.859375 -7.84375 C 19.367188 -5.832031 17.234375 -4.421875 14.453125 -3.609375 C 10.554688 -2.472656 7.1875 -2.734375 4.34375 -4.390625 C 1.5 -6.054688 -0.519531 -8.957031 -1.71875 -13.09375 C -2.519531 -15.84375 -2.726562 -18.375 -2.34375 -20.6875 C -1.957031 -23.007812 -1.03125 -24.972656 0.4375 -26.578125 C 1.90625 -28.191406 3.832031 -29.347656 6.21875 -30.046875 Z M 2.1875 -17.171875 L 16.390625 -21.296875 C 15.585938 -23.679688 14.3125 -25.273438 12.5625 -26.078125 C 10.820312 -26.878906 9.050781 -27.019531 7.25 -26.5 C 5.21875 -25.90625 3.753906 -24.734375 2.859375 -22.984375 C 1.972656 -21.234375 1.75 -19.296875 2.1875 -17.171875 Z M 2.1875 -17.171875 "/></g></g></g><g fill="#000000" fill-opacity="1"><g transform="translate(256.775059, 331.982183)"><g><path d="M -0.71875 -30.109375 C 0.644531 -30.816406 2.207031 -31.097656 3.96875 -30.953125 L 4.515625 -26.546875 C 3.242188 -26.628906 2.078125 -26.394531 1.015625 -25.84375 C -0.492188 -25.070312 -1.25 -23.8125 -1.25 -22.0625 C -1.25 -20.3125 -0.6875 -18.34375 0.4375 -16.15625 L 6.921875 -3.5625 L 2.921875 -1.5 L -9.203125 -25.0625 L -5.625 -26.90625 L -3.8125 -23.359375 C -3.75 -25.117188 -3.519531 -26.523438 -3.125 -27.578125 C -2.738281 -28.640625 -1.9375 -29.484375 -0.71875 -30.109375 Z M -0.71875 -30.109375 "/></g></g></g><g fill="#000000" fill-opacity="1"><g transform="translate(277.059174, 320.939395)"><g/></g></g><g fill="#000000" fill-opacity="1"><g transform="translate(294.055809, 308.923903)"><g><path d="M -11.328125 -22.046875 C -11.460938 -23.617188 -11.296875 -25.082031 -10.828125 -26.4375 C -10.367188 -27.789062 -9.550781 -29.078125 -8.375 -30.296875 C -7.375 -31.328125 -6.3125 -32.101562 -5.1875 -32.625 C -4.0625 -33.15625 -2.953125 -33.4375 -1.859375 -33.46875 C -0.734375 -33.507812 0.382812 -33.25 1.5 -32.6875 C 2.625 -32.132812 3.859375 -31.203125 5.203125 -29.890625 L 17.46875 -17.984375 L 14.328125 -14.75 L 2.140625 -26.578125 C 0.703125 -27.984375 -0.734375 -28.71875 -2.171875 -28.78125 C -3.609375 -28.84375 -4.976562 -28.203125 -6.28125 -26.859375 C -7.226562 -25.878906 -7.859375 -24.679688 -8.171875 -23.265625 C -8.484375 -21.847656 -8.316406 -20.492188 -7.671875 -19.203125 C -7.171875 -18.242188 -6.347656 -17.207031 -5.203125 -16.09375 L 5.515625 -5.6875 L 2.390625 -2.453125 L -23.875 -27.96875 L -20.75 -31.203125 Z M -11.328125 -22.046875 "/></g></g></g><g fill="#000000" fill-opacity="1"><g transform="translate(318.249855, 282.815151)"><g><path d="M -15.828125 -26.375 C -14.710938 -28.238281 -13.625 -29.640625 -12.5625 -30.578125 C -11.5 -31.515625 -10.421875 -32.113281 -9.328125 -32.375 C -8.265625 -32.613281 -7.253906 -32.601562 -6.296875 -32.34375 C -5.335938 -32.09375 -4.1875 -31.570312 -2.84375 -30.78125 L 6.34375 -25.296875 C 9.289062 -23.523438 11.6875 -22.644531 13.53125 -22.65625 L 11.109375 -18.625 C 10.097656 -18.71875 9.003906 -19.015625 7.828125 -19.515625 C 8.160156 -17.398438 8.191406 -15.519531 7.921875 -13.875 C 7.648438 -12.226562 7.085938 -10.691406 6.234375 -9.265625 C 4.765625 -6.804688 3.007812 -5.226562 0.96875 -4.53125 C -1.0625 -3.832031 -3.0625 -4.070312 -5.03125 -5.25 C -6.039062 -5.863281 -6.882812 -6.691406 -7.5625 -7.734375 C -8.238281 -8.773438 -8.59375 -9.863281 -8.625 -11 C -8.6875 -12.21875 -8.578125 -13.359375 -8.296875 -14.421875 C -8.015625 -15.492188 -7.5625 -16.726562 -6.9375 -18.125 C -6.238281 -19.625 -5.597656 -21.144531 -5.015625 -22.6875 C -4.429688 -24.226562 -4.082031 -25.398438 -3.96875 -26.203125 L -4.9375 -26.78125 C -6.488281 -27.707031 -7.90625 -27.984375 -9.1875 -27.609375 C -10.46875 -27.242188 -11.710938 -26.050781 -12.921875 -24.03125 C -14.054688 -22.125 -14.535156 -20.554688 -14.359375 -19.328125 C -14.191406 -18.097656 -13.445312 -16.828125 -12.125 -15.515625 L -14.859375 -12.03125 C -17.003906 -14.019531 -18.128906 -16.1875 -18.234375 -18.53125 C -18.347656 -20.882812 -17.546875 -23.5 -15.828125 -26.375 Z M -2.921875 -18.0625 C -3.578125 -16.4375 -4.035156 -15.148438 -4.296875 -14.203125 C -4.554688 -13.265625 -4.585938 -12.378906 -4.390625 -11.546875 C -4.191406 -10.722656 -3.613281 -10.019531 -2.65625 -9.4375 C -1.507812 -8.757812 -0.375 -8.648438 0.75 -9.109375 C 1.875 -9.578125 2.890625 -10.566406 3.796875 -12.078125 C 4.328125 -12.960938 4.71875 -14.019531 4.96875 -15.25 C 5.21875 -16.488281 5.113281 -17.769531 4.65625 -19.09375 C 4.363281 -19.925781 3.921875 -20.679688 3.328125 -21.359375 C 2.742188 -22.035156 1.878906 -22.71875 0.734375 -23.40625 L -0.9375 -24.390625 C -1.164062 -22.941406 -1.828125 -20.832031 -2.921875 -18.0625 Z M -2.921875 -18.0625 "/></g></g></g><g fill="#000000" fill-opacity="1"><g transform="translate(335.771737, 251.831285)"><g><path d="M -21.859375 -20.84375 C -20.929688 -23.769531 -18.957031 -25.828125 -15.9375 -27.015625 L -18.953125 -27.96875 L -17.703125 -31.9375 L 4.53125 -24.921875 C 8.238281 -23.753906 10.835938 -22.414062 12.328125 -20.90625 C 13.597656 -19.601562 14.429688 -17.984375 14.828125 -16.046875 C 15.222656 -14.117188 15.015625 -11.867188 14.203125 -9.296875 C 13.523438 -7.148438 12.609375 -5.429688 11.453125 -4.140625 C 10.296875 -2.847656 9.03125 -1.992188 7.65625 -1.578125 C 6.289062 -1.171875 4.941406 -1.175781 3.609375 -1.59375 L 2.890625 -1.875 L 4.84375 -5.828125 L 4.9375 -5.796875 C 6.34375 -5.597656 7.515625 -5.878906 8.453125 -6.640625 C 9.390625 -7.398438 10.15625 -8.722656 10.75 -10.609375 C 11.144531 -11.878906 11.28125 -13.0625 11.15625 -14.15625 C 11.039062 -15.25 10.695312 -16.1875 10.125 -16.96875 C 9.601562 -17.675781 8.90625 -18.265625 8.03125 -18.734375 C 7.15625 -19.203125 6.054688 -19.644531 4.734375 -20.0625 L 2.859375 -20.65625 C 4.472656 -18.039062 4.851562 -15.382812 4 -12.6875 C 3.3125 -10.507812 2.160156 -8.757812 0.546875 -7.4375 C -1.054688 -6.125 -2.984375 -5.3125 -5.234375 -5 C -7.484375 -4.6875 -9.84375 -4.921875 -12.3125 -5.703125 C -14.914062 -6.523438 -17.054688 -7.703125 -18.734375 -9.234375 C -20.410156 -10.765625 -21.519531 -12.535156 -22.0625 -14.546875 C -22.613281 -16.566406 -22.546875 -18.664062 -21.859375 -20.84375 Z M -11.21875 -10.1875 C -8.09375 -9.195312 -5.507812 -9.078125 -3.46875 -9.828125 C -1.425781 -10.578125 -0.0625 -12.046875 0.625 -14.234375 C 0.90625 -15.140625 0.929688 -16.28125 0.703125 -17.65625 C 0.484375 -19.03125 -0.328125 -20.335938 -1.734375 -21.578125 C -2.859375 -22.535156 -4.457031 -23.34375 -6.53125 -24 C -9.5625 -24.957031 -12.109375 -25.046875 -14.171875 -24.265625 C -16.242188 -23.484375 -17.613281 -22.035156 -18.28125 -19.921875 C -18.90625 -17.941406 -18.597656 -16.050781 -17.359375 -14.25 C -16.128906 -12.445312 -14.082031 -11.09375 -11.21875 -10.1875 Z M -11.21875 -10.1875 "/></g></g></g></svg>